<svg xmlns="http://www.w3.org/2000/svg" xmlns:xlink="http://www.w3.org/1999/xlink" width="65" zoomAndPan="magnify" viewBox="0 0 48.75 48.75" height="65" preserveAspectRatio="xMidYMid meet" version="1.0"><defs><g/><clipPath id="2854005695"><path d="M 34 5 L 48.5 5 L 48.5 43 L 34 43 Z M 34 5 " clip-rule="nonzero"/></clipPath></defs><g clip-path="url(#2854005695)"><g fill="#a20f24" fill-opacity="1"><g transform="translate(32.042553, 42.904975)"><g><path d="M 11.625 -23.125 L 2.125 -23.125 L 2.125 -22.1875 L 6.546875 -22.1875 L 6.546875 -0.9375 L 2.125 -0.9375 L 2.125 0 L 16.046875 0 L 16.046875 -0.9375 L 11.625 -0.9375 Z M 12.09375 -34.046875 C 12.09375 -34.910156 11.796875 -35.632812 11.203125 -36.21875 C 10.617188 -36.8125 9.894531 -37.109375 9.03125 -37.109375 C 8.164062 -37.109375 7.4375 -36.8125 6.84375 -36.21875 C 6.25 -35.632812 5.953125 -34.910156 5.953125 -34.046875 C 5.953125 -33.179688 6.25 -32.453125 6.84375 -31.859375 C 7.4375 -31.265625 8.164062 -30.96875 9.03125 -30.96875 C 9.894531 -30.96875 10.617188 -31.265625 11.203125 -31.859375 C 11.796875 -32.453125 12.09375 -33.179688 12.09375 -34.046875 Z M 12.09375 -34.046875 "/></g></g></g></g><g fill="#a20f24" fill-opacity="1"><g transform="translate(-1.641582, 41.785715)"><g><path d="M 30.859375 -10.96875 C 30.679688 -10.96875 30.5 -10.769531 30.3125 -10.375 C 29.664062 -8.894531 28.960938 -7.515625 28.203125 -6.234375 C 27.453125 -4.960938 26.585938 -3.859375 25.609375 -2.921875 C 24.640625 -1.984375 23.5625 -1.253906 22.375 -0.734375 C 21.1875 -0.210938 19.875 0.046875 18.4375 0.046875 C 15.15625 0.046875 12.71875 -1.226562 11.125 -3.78125 C 9.539062 -6.34375 8.75 -10.09375 8.75 -15.03125 L 8.75 -21.078125 C 8.75 -25.835938 9.5625 -29.503906 11.1875 -32.078125 C 12.8125 -34.648438 15.316406 -35.9375 18.703125 -35.9375 C 20.109375 -35.9375 21.382812 -35.710938 22.53125 -35.265625 C 23.6875 -34.816406 24.734375 -34.195312 25.671875 -33.40625 C 26.609375 -32.613281 27.414062 -31.65625 28.09375 -30.53125 C 28.78125 -29.414062 29.34375 -28.210938 29.78125 -26.921875 C 29.882812 -26.554688 30.007812 -26.375 30.15625 -26.375 C 30.332031 -26.375 30.421875 -26.585938 30.421875 -27.015625 L 30.421875 -35.828125 C 30.421875 -36.148438 30.382812 -36.363281 30.3125 -36.46875 C 30.25 -36.582031 30.144531 -36.640625 30 -36.640625 C 29.8125 -36.640625 29.578125 -36.5 29.296875 -36.21875 L 27.1875 -34.046875 C 26.03125 -34.984375 24.726562 -35.691406 23.28125 -36.171875 C 21.84375 -36.660156 20.316406 -36.90625 18.703125 -36.90625 C 16.328125 -36.90625 14.117188 -36.363281 12.078125 -35.28125 C 10.046875 -34.207031 8.28125 -32.785156 6.78125 -31.015625 C 5.289062 -29.253906 4.128906 -27.25 3.296875 -25 C 2.460938 -22.75 2.046875 -20.46875 2.046875 -18.15625 C 2.046875 -15.488281 2.523438 -12.992188 3.484375 -10.671875 C 4.441406 -8.347656 5.691406 -6.320312 7.234375 -4.59375 C 8.785156 -2.863281 10.535156 -1.492188 12.484375 -0.484375 C 14.429688 0.523438 16.414062 1.03125 18.4375 1.03125 C 20.125 1.03125 21.742188 0.695312 23.296875 0.03125 C 24.847656 -0.632812 26.234375 -1.65625 27.453125 -3.03125 L 30.3125 0.109375 C 30.5 0.285156 30.664062 0.375 30.8125 0.375 C 31.019531 0.375 31.125 0.25 31.125 0 L 31.125 -10.4375 C 31.125 -10.789062 31.035156 -10.96875 30.859375 -10.96875 Z M 30.859375 -10.96875 "/></g></g></g><g fill="#000000" fill-opacity="1"><g transform="translate(10.061201, 25.309817)"><g><path d="M 0.640625 0.015625 C 0.535156 0.015625 0.4375 -0.00390625 0.34375 -0.046875 C 0.257812 -0.0976562 0.191406 -0.164062 0.140625 -0.25 C 0.0859375 -0.332031 0.0625 -0.429688 0.0625 -0.546875 C 0.0625 -0.648438 0.0859375 -0.742188 0.140625 -0.828125 C 0.191406 -0.910156 0.257812 -0.972656 0.34375 -1.015625 C 0.4375 -1.066406 0.535156 -1.09375 0.640625 -1.09375 C 0.734375 -1.09375 0.816406 -1.078125 0.890625 -1.046875 C 0.972656 -1.015625 1.039062 -0.96875 1.09375 -0.90625 L 0.9375 -0.765625 C 0.863281 -0.847656 0.769531 -0.890625 0.65625 -0.890625 C 0.59375 -0.890625 0.535156 -0.875 0.484375 -0.84375 C 0.429688 -0.8125 0.390625 -0.769531 0.359375 -0.71875 C 0.328125 -0.664062 0.3125 -0.609375 0.3125 -0.546875 C 0.3125 -0.472656 0.328125 -0.410156 0.359375 -0.359375 C 0.390625 -0.304688 0.429688 -0.265625 0.484375 -0.234375 C 0.535156 -0.203125 0.59375 -0.1875 0.65625 -0.1875 C 0.769531 -0.1875 0.863281 -0.234375 0.9375 -0.328125 L 1.09375 -0.171875 C 1.039062 -0.109375 0.972656 -0.0625 0.890625 -0.03125 C 0.816406 0 0.734375 0.015625 0.640625 0.015625 Z M 0.640625 0.015625 "/></g></g></g><g fill="#000000" fill-opacity="1"><g transform="translate(11.736249, 25.309817)"><g><path d="M 0.65625 0.015625 C 0.539062 0.015625 0.4375 -0.00390625 0.34375 -0.046875 C 0.257812 -0.0976562 0.191406 -0.164062 0.140625 -0.25 C 0.0859375 -0.332031 0.0625 -0.429688 0.0625 -0.546875 C 0.0625 -0.648438 0.0859375 -0.742188 0.140625 -0.828125 C 0.191406 -0.910156 0.257812 -0.972656 0.34375 -1.015625 C 0.4375 -1.066406 0.539062 -1.09375 0.65625 -1.09375 C 0.769531 -1.09375 0.867188 -1.066406 0.953125 -1.015625 C 1.046875 -0.972656 1.117188 -0.910156 1.171875 -0.828125 C 1.222656 -0.742188 1.25 -0.648438 1.25 -0.546875 C 1.25 -0.429688 1.222656 -0.332031 1.171875 -0.25 C 1.117188 -0.164062 1.046875 -0.0976562 0.953125 -0.046875 C 0.867188 -0.00390625 0.769531 0.015625 0.65625 0.015625 Z M 0.65625 -0.1875 C 0.71875 -0.1875 0.773438 -0.203125 0.828125 -0.234375 C 0.878906 -0.265625 0.914062 -0.304688 0.9375 -0.359375 C 0.96875 -0.410156 0.984375 -0.472656 0.984375 -0.546875 C 0.984375 -0.609375 0.96875 -0.664062 0.9375 -0.71875 C 0.914062 -0.769531 0.878906 -0.8125 0.828125 -0.84375 C 0.773438 -0.875 0.71875 -0.890625 0.65625 -0.890625 C 0.59375 -0.890625 0.535156 -0.875 0.484375 -0.84375 C 0.429688 -0.8125 0.390625 -0.769531 0.359375 -0.71875 C 0.328125 -0.664062 0.3125 -0.609375 0.3125 -0.546875 C 0.3125 -0.472656 0.328125 -0.410156 0.359375 -0.359375 C 0.390625 -0.304688 0.429688 -0.265625 0.484375 -0.234375 C 0.535156 -0.203125 0.59375 -0.1875 0.65625 -0.1875 Z M 0.65625 -0.1875 "/></g></g></g><g fill="#000000" fill-opacity="1"><g transform="translate(13.583583, 25.309817)"><g><path d="M 0.125 -1.078125 L 0.625 -1.078125 C 0.738281 -1.078125 0.835938 -1.054688 0.921875 -1.015625 C 1.015625 -0.972656 1.085938 -0.910156 1.140625 -0.828125 C 1.191406 -0.742188 1.21875 -0.648438 1.21875 -0.546875 C 1.21875 -0.429688 1.191406 -0.332031 1.140625 -0.25 C 1.085938 -0.175781 1.015625 -0.113281 0.921875 -0.0625 C 0.835938 -0.0195312 0.738281 0 0.625 0 L 0.125 0 Z M 0.609375 -0.203125 C 0.710938 -0.203125 0.796875 -0.234375 0.859375 -0.296875 C 0.929688 -0.359375 0.96875 -0.441406 0.96875 -0.546875 C 0.96875 -0.648438 0.929688 -0.726562 0.859375 -0.78125 C 0.796875 -0.84375 0.710938 -0.875 0.609375 -0.875 L 0.375 -0.875 L 0.375 -0.203125 Z M 0.609375 -0.203125 "/></g></g></g><g fill="#000000" fill-opacity="1"><g transform="translate(15.402979, 25.309817)"><g><path d="M 0.96875 -0.203125 L 0.96875 0 L 0.125 0 L 0.125 -1.078125 L 0.953125 -1.078125 L 0.953125 -0.875 L 0.375 -0.875 L 0.375 -0.640625 L 0.875 -0.640625 L 0.875 -0.453125 L 0.375 -0.453125 L 0.375 -0.203125 Z M 0.96875 -0.203125 "/></g></g></g><g fill="#000000" fill-opacity="1"><g transform="translate(16.981797, 25.309817)"><g/></g></g><g fill="#000000" fill-opacity="1"><g transform="translate(17.958398, 25.309817)"><g><path d="M 0.125 -1.078125 L 0.375 -1.078125 L 0.375 0 L 0.125 0 Z M 0.125 -1.078125 "/></g></g></g><g fill="#000000" fill-opacity="1"><g transform="translate(19.004843, 25.309817)"><g><path d="M 0.125 -1.078125 L 0.375 -1.078125 L 0.375 -0.203125 L 0.921875 -0.203125 L 0.921875 0 L 0.125 0 Z M 0.125 -1.078125 "/></g></g></g><g fill="#000000" fill-opacity="1"><g transform="translate(20.47967, 25.309817)"><g><path d="M 0.125 -1.078125 L 0.375 -1.078125 L 0.375 -0.203125 L 0.921875 -0.203125 L 0.921875 0 L 0.125 0 Z M 0.125 -1.078125 "/></g></g></g><g fill="#000000" fill-opacity="1"><g transform="translate(21.954497, 25.309817)"><g><path d="M 0.609375 0.015625 C 0.453125 0.015625 0.332031 -0.0234375 0.25 -0.109375 C 0.164062 -0.191406 0.125 -0.3125 0.125 -0.46875 L 0.125 -1.078125 L 0.375 -1.078125 L 0.375 -0.484375 C 0.375 -0.285156 0.453125 -0.1875 0.609375 -0.1875 C 0.691406 -0.1875 0.753906 -0.207031 0.796875 -0.25 C 0.835938 -0.300781 0.859375 -0.378906 0.859375 -0.484375 L 0.859375 -1.078125 L 1.09375 -1.078125 L 1.09375 -0.46875 C 1.09375 -0.3125 1.050781 -0.191406 0.96875 -0.109375 C 0.882812 -0.0234375 0.765625 0.015625 0.609375 0.015625 Z M 0.609375 0.015625 "/></g></g></g><g fill="#000000" fill-opacity="1"><g transform="translate(23.714912, 25.309817)"><g><path d="M 0.484375 0.015625 C 0.398438 0.015625 0.316406 0.00390625 0.234375 -0.015625 C 0.148438 -0.0351562 0.0859375 -0.0664062 0.046875 -0.109375 L 0.125 -0.296875 C 0.175781 -0.265625 0.234375 -0.238281 0.296875 -0.21875 C 0.359375 -0.195312 0.421875 -0.1875 0.484375 -0.1875 C 0.554688 -0.1875 0.609375 -0.195312 0.640625 -0.21875 C 0.671875 -0.238281 0.6875 -0.265625 0.6875 -0.296875 C 0.6875 -0.328125 0.675781 -0.347656 0.65625 -0.359375 C 0.644531 -0.378906 0.625 -0.394531 0.59375 -0.40625 C 0.5625 -0.414062 0.515625 -0.425781 0.453125 -0.4375 C 0.367188 -0.457031 0.300781 -0.476562 0.25 -0.5 C 0.195312 -0.519531 0.148438 -0.550781 0.109375 -0.59375 C 0.078125 -0.632812 0.0625 -0.691406 0.0625 -0.765625 C 0.0625 -0.828125 0.078125 -0.882812 0.109375 -0.9375 C 0.148438 -0.988281 0.203125 -1.023438 0.265625 -1.046875 C 0.335938 -1.078125 0.421875 -1.09375 0.515625 -1.09375 C 0.585938 -1.09375 0.65625 -1.082031 0.71875 -1.0625 C 0.789062 -1.050781 0.847656 -1.03125 0.890625 -1 L 0.8125 -0.8125 C 0.71875 -0.875 0.617188 -0.90625 0.515625 -0.90625 C 0.453125 -0.90625 0.398438 -0.890625 0.359375 -0.859375 C 0.328125 -0.835938 0.3125 -0.8125 0.3125 -0.78125 C 0.3125 -0.738281 0.332031 -0.707031 0.375 -0.6875 C 0.414062 -0.675781 0.472656 -0.660156 0.546875 -0.640625 C 0.628906 -0.617188 0.695312 -0.597656 0.75 -0.578125 C 0.800781 -0.554688 0.84375 -0.523438 0.875 -0.484375 C 0.914062 -0.441406 0.9375 -0.382812 0.9375 -0.3125 C 0.9375 -0.25 0.921875 -0.191406 0.890625 -0.140625 C 0.859375 -0.0976562 0.804688 -0.0625 0.734375 -0.03125 C 0.660156 0 0.578125 0.015625 0.484375 0.015625 Z M 0.484375 0.015625 "/></g></g></g><g fill="#000000" fill-opacity="1"><g transform="translate(25.242511, 25.309817)"><g><path d="M 0.359375 -0.875 L 0 -0.875 L 0 -1.078125 L 0.953125 -1.078125 L 0.953125 -0.875 L 0.609375 -0.875 L 0.609375 0 L 0.359375 0 Z M 0.359375 -0.875 "/></g></g></g><g fill="#000000" fill-opacity="1"><g transform="translate(26.739066, 25.309817)"><g><path d="M 0.8125 0 L 0.609375 -0.296875 L 0.375 -0.296875 L 0.375 0 L 0.125 0 L 0.125 -1.078125 L 0.59375 -1.078125 C 0.6875 -1.078125 0.769531 -1.0625 0.84375 -1.03125 C 0.914062 -1 0.96875 -0.953125 1 -0.890625 C 1.039062 -0.835938 1.0625 -0.769531 1.0625 -0.6875 C 1.0625 -0.601562 1.039062 -0.53125 1 -0.46875 C 0.96875 -0.414062 0.914062 -0.375 0.84375 -0.34375 L 1.09375 0 Z M 0.8125 -0.6875 C 0.8125 -0.75 0.789062 -0.796875 0.75 -0.828125 C 0.71875 -0.859375 0.660156 -0.875 0.578125 -0.875 L 0.375 -0.875 L 0.375 -0.5 L 0.578125 -0.5 C 0.660156 -0.5 0.71875 -0.515625 0.75 -0.546875 C 0.789062 -0.578125 0.8125 -0.625 0.8125 -0.6875 Z M 0.8125 -0.6875 "/></g></g></g><g fill="#000000" fill-opacity="1"><g transform="translate(28.417219, 25.309817)"><g><path d="M 0.84375 -0.234375 L 0.34375 -0.234375 L 0.25 0 L -0.015625 0 L 0.46875 -1.078125 L 0.71875 -1.078125 L 1.203125 0 L 0.9375 0 Z M 0.765625 -0.421875 L 0.59375 -0.84375 L 0.421875 -0.421875 Z M 0.765625 -0.421875 "/></g></g></g><g fill="#000000" fill-opacity="1"><g transform="translate(30.143487, 25.309817)"><g><path d="M 0.359375 -0.875 L 0 -0.875 L 0 -1.078125 L 0.953125 -1.078125 L 0.953125 -0.875 L 0.609375 -0.875 L 0.609375 0 L 0.359375 0 Z M 0.359375 -0.875 "/></g></g></g><g fill="#000000" fill-opacity="1"><g transform="translate(31.640043, 25.309817)"><g><path d="M 0.96875 -0.203125 L 0.96875 0 L 0.125 0 L 0.125 -1.078125 L 0.953125 -1.078125 L 0.953125 -0.875 L 0.375 -0.875 L 0.375 -0.640625 L 0.875 -0.640625 L 0.875 -0.453125 L 0.375 -0.453125 L 0.375 -0.203125 Z M 0.96875 -0.203125 "/></g></g></g><g fill="#000000" fill-opacity="1"><g transform="translate(33.218861, 25.309817)"><g><path d="M 0.125 -1.078125 L 0.625 -1.078125 C 0.738281 -1.078125 0.835938 -1.054688 0.921875 -1.015625 C 1.015625 -0.972656 1.085938 -0.910156 1.140625 -0.828125 C 1.191406 -0.742188 1.21875 -0.648438 1.21875 -0.546875 C 1.21875 -0.429688 1.191406 -0.332031 1.140625 -0.25 C 1.085938 -0.175781 1.015625 -0.113281 0.921875 -0.0625 C 0.835938 -0.0195312 0.738281 0 0.625 0 L 0.125 0 Z M 0.609375 -0.203125 C 0.710938 -0.203125 0.796875 -0.234375 0.859375 -0.296875 C 0.929688 -0.359375 0.96875 -0.441406 0.96875 -0.546875 C 0.96875 -0.648438 0.929688 -0.726562 0.859375 -0.78125 C 0.796875 -0.84375 0.710938 -0.875 0.609375 -0.875 L 0.375 -0.875 L 0.375 -0.203125 Z M 0.609375 -0.203125 "/></g></g></g></svg>