<svg xmlns="http://www.w3.org/2000/svg" xmlns:xlink="http://www.w3.org/1999/xlink" width="500" zoomAndPan="magnify" viewBox="0 0 375 374.999991" height="500" preserveAspectRatio="xMidYMid meet" version="1.0"><defs><g/></defs><g fill="#a20f24" fill-opacity="1"><g transform="translate(246.473583, 317.874072)"><g><path d="M 77.765625 -154.734375 L 14.203125 -154.734375 L 14.203125 -148.421875 L 43.8125 -148.421875 L 43.8125 -6.3125 L 14.203125 -6.3125 L 14.203125 0 L 107.359375 0 L 107.359375 -6.3125 L 77.765625 -6.3125 Z M 80.921875 -227.75 C 80.921875 -233.539062 78.945312 -238.410156 75 -242.359375 C 71.050781 -246.304688 66.179688 -248.28125 60.390625 -248.28125 C 54.597656 -248.28125 49.726562 -246.304688 45.78125 -242.359375 C 41.832031 -238.410156 39.859375 -233.539062 39.859375 -227.75 C 39.859375 -221.957031 41.832031 -217.085938 45.78125 -213.140625 C 49.726562 -209.203125 54.597656 -207.234375 60.390625 -207.234375 C 66.179688 -207.234375 71.050781 -209.203125 75 -213.140625 C 78.945312 -217.085938 80.921875 -221.957031 80.921875 -227.75 Z M 80.921875 -227.75 "/></g></g></g><g fill="#a20f24" fill-opacity="1"><g transform="translate(12.291568, 312.500626)"><g><path d="M 207.859375 -73.890625 C 206.640625 -73.890625 205.425781 -72.554688 204.21875 -69.890625 C 199.84375 -59.941406 195.109375 -50.660156 190.015625 -42.046875 C 184.921875 -33.429688 179.097656 -25.96875 172.546875 -19.65625 C 165.992188 -13.34375 158.710938 -8.425781 150.703125 -4.90625 C 142.691406 -1.394531 133.832031 0.359375 124.125 0.359375 C 102.039062 0.359375 85.660156 -8.253906 74.984375 -25.484375 C 64.304688 -42.710938 58.96875 -67.953125 58.96875 -101.203125 L 58.96875 -141.96875 C 58.96875 -174 64.425781 -198.691406 75.34375 -216.046875 C 86.269531 -233.398438 103.140625 -242.078125 125.953125 -242.078125 C 135.410156 -242.078125 144.019531 -240.554688 151.78125 -237.515625 C 159.550781 -234.484375 166.59375 -230.296875 172.90625 -224.953125 C 179.21875 -219.617188 184.675781 -213.191406 189.28125 -205.671875 C 193.894531 -198.148438 197.660156 -190.019531 200.578125 -181.28125 C 201.304688 -178.851562 202.15625 -177.640625 203.125 -177.640625 C 204.332031 -177.640625 204.9375 -179.09375 204.9375 -182 L 204.9375 -241.34375 C 204.9375 -243.53125 204.691406 -244.984375 204.203125 -245.703125 C 203.722656 -246.429688 203 -246.796875 202.03125 -246.796875 C 200.8125 -246.796875 199.234375 -245.828125 197.296875 -243.890625 L 183.09375 -229.328125 C 175.332031 -235.640625 166.597656 -240.429688 156.890625 -243.703125 C 147.179688 -246.984375 136.867188 -248.625 125.953125 -248.625 C 109.929688 -248.625 95.066406 -244.984375 81.359375 -237.703125 C 67.648438 -230.421875 55.757812 -220.832031 45.6875 -208.9375 C 35.613281 -197.050781 27.785156 -183.523438 22.203125 -168.359375 C 16.617188 -153.191406 13.828125 -137.84375 13.828125 -122.3125 C 13.828125 -104.351562 17.039062 -87.546875 23.46875 -71.890625 C 29.90625 -56.242188 38.34375 -42.59375 48.78125 -30.9375 C 59.21875 -19.289062 70.988281 -10.066406 84.09375 -3.265625 C 97.195312 3.523438 110.539062 6.921875 124.125 6.921875 C 135.53125 6.921875 146.453125 4.675781 156.890625 0.1875 C 167.328125 -4.300781 176.671875 -11.160156 184.921875 -20.390625 L 204.21875 0.734375 C 205.425781 1.941406 206.515625 2.546875 207.484375 2.546875 C 208.941406 2.546875 209.671875 1.695312 209.671875 0 L 209.671875 -70.25 C 209.671875 -72.675781 209.066406 -73.890625 207.859375 -73.890625 Z M 207.859375 -73.890625 "/></g></g></g><g fill="#000000" fill-opacity="1"><g transform="translate(105.280033, 196.205217)"><g><path d="M 4.375 0.125 C 3.625 0.125 2.945312 -0.0351562 2.34375 -0.359375 C 1.738281 -0.679688 1.265625 -1.128906 0.921875 -1.703125 C 0.578125 -2.285156 0.40625 -2.9375 0.40625 -3.65625 C 0.40625 -4.382812 0.578125 -5.035156 0.921875 -5.609375 C 1.265625 -6.179688 1.738281 -6.628906 2.34375 -6.953125 C 2.945312 -7.273438 3.625 -7.4375 4.375 -7.4375 C 5.007812 -7.4375 5.582031 -7.328125 6.09375 -7.109375 C 6.613281 -6.890625 7.046875 -6.566406 7.390625 -6.140625 L 6.296875 -5.140625 C 5.804688 -5.710938 5.195312 -6 4.46875 -6 C 4.007812 -6 3.601562 -5.898438 3.25 -5.703125 C 2.894531 -5.503906 2.617188 -5.226562 2.421875 -4.875 C 2.222656 -4.519531 2.125 -4.113281 2.125 -3.65625 C 2.125 -3.207031 2.222656 -2.800781 2.421875 -2.4375 C 2.617188 -2.082031 2.894531 -1.804688 3.25 -1.609375 C 3.601562 -1.410156 4.007812 -1.3125 4.46875 -1.3125 C 5.195312 -1.3125 5.804688 -1.601562 6.296875 -2.1875 L 7.390625 -1.1875 C 7.046875 -0.757812 6.613281 -0.429688 6.09375 -0.203125 C 5.582031 0.015625 5.007812 0.125 4.375 0.125 Z M 4.375 0.125 "/></g></g></g><g fill="#000000" fill-opacity="1"><g transform="translate(116.548573, 196.205217)"><g><path d="M 4.40625 0.125 C 3.644531 0.125 2.957031 -0.0351562 2.34375 -0.359375 C 1.738281 -0.691406 1.265625 -1.144531 0.921875 -1.71875 C 0.578125 -2.289062 0.40625 -2.9375 0.40625 -3.65625 C 0.40625 -4.375 0.578125 -5.019531 0.921875 -5.59375 C 1.265625 -6.164062 1.738281 -6.613281 2.34375 -6.9375 C 2.957031 -7.269531 3.644531 -7.4375 4.40625 -7.4375 C 5.164062 -7.4375 5.847656 -7.269531 6.453125 -6.9375 C 7.066406 -6.613281 7.546875 -6.164062 7.890625 -5.59375 C 8.242188 -5.019531 8.421875 -4.375 8.421875 -3.65625 C 8.421875 -2.9375 8.242188 -2.289062 7.890625 -1.71875 C 7.546875 -1.144531 7.066406 -0.691406 6.453125 -0.359375 C 5.847656 -0.0351562 5.164062 0.125 4.40625 0.125 Z M 4.40625 -1.3125 C 4.84375 -1.3125 5.234375 -1.410156 5.578125 -1.609375 C 5.929688 -1.804688 6.207031 -2.082031 6.40625 -2.4375 C 6.601562 -2.800781 6.703125 -3.207031 6.703125 -3.65625 C 6.703125 -4.113281 6.601562 -4.519531 6.40625 -4.875 C 6.207031 -5.226562 5.929688 -5.503906 5.578125 -5.703125 C 5.234375 -5.898438 4.84375 -6 4.40625 -6 C 3.976562 -6 3.585938 -5.898438 3.234375 -5.703125 C 2.890625 -5.503906 2.617188 -5.226562 2.421875 -4.875 C 2.222656 -4.519531 2.125 -4.113281 2.125 -3.65625 C 2.125 -3.207031 2.222656 -2.800781 2.421875 -2.4375 C 2.617188 -2.082031 2.890625 -1.804688 3.234375 -1.609375 C 3.585938 -1.410156 3.976562 -1.3125 4.40625 -1.3125 Z M 4.40625 -1.3125 "/></g></g></g><g fill="#000000" fill-opacity="1"><g transform="translate(128.976125, 196.205217)"><g><path d="M 0.875 -7.3125 L 4.1875 -7.3125 C 4.988281 -7.3125 5.691406 -7.160156 6.296875 -6.859375 C 6.910156 -6.554688 7.382812 -6.128906 7.71875 -5.578125 C 8.0625 -5.023438 8.234375 -4.382812 8.234375 -3.65625 C 8.234375 -2.925781 8.0625 -2.285156 7.71875 -1.734375 C 7.382812 -1.179688 6.910156 -0.753906 6.296875 -0.453125 C 5.691406 -0.148438 4.988281 0 4.1875 0 L 0.875 0 Z M 4.109375 -1.390625 C 4.835938 -1.390625 5.421875 -1.59375 5.859375 -2 C 6.296875 -2.40625 6.515625 -2.957031 6.515625 -3.65625 C 6.515625 -4.351562 6.296875 -4.90625 5.859375 -5.3125 C 5.421875 -5.71875 4.835938 -5.921875 4.109375 -5.921875 L 2.5625 -5.921875 L 2.5625 -1.390625 Z M 4.109375 -1.390625 "/></g></g></g><g fill="#000000" fill-opacity="1"><g transform="translate(141.215732, 196.205217)"><g><path d="M 6.53125 -1.359375 L 6.53125 0 L 0.875 0 L 0.875 -7.3125 L 6.390625 -7.3125 L 6.390625 -5.953125 L 2.546875 -5.953125 L 2.546875 -4.375 L 5.953125 -4.375 L 5.953125 -3.046875 L 2.546875 -3.046875 L 2.546875 -1.359375 Z M 6.53125 -1.359375 "/></g></g></g><g fill="#000000" fill-opacity="1"><g transform="translate(151.836901, 196.205217)"><g/></g></g><g fill="#000000" fill-opacity="1"><g transform="translate(158.406782, 196.205217)"><g><path d="M 0.875 -7.3125 L 2.5625 -7.3125 L 2.5625 0 L 0.875 0 Z M 0.875 -7.3125 "/></g></g></g><g fill="#000000" fill-opacity="1"><g transform="translate(165.446523, 196.205217)"><g><path d="M 0.875 -7.3125 L 2.5625 -7.3125 L 2.5625 -1.375 L 6.234375 -1.375 L 6.234375 0 L 0.875 0 Z M 0.875 -7.3125 "/></g></g></g><g fill="#000000" fill-opacity="1"><g transform="translate(175.368115, 196.205217)"><g><path d="M 0.875 -7.3125 L 2.5625 -7.3125 L 2.5625 -1.375 L 6.234375 -1.375 L 6.234375 0 L 0.875 0 Z M 0.875 -7.3125 "/></g></g></g><g fill="#000000" fill-opacity="1"><g transform="translate(185.289707, 196.205217)"><g><path d="M 4.125 0.125 C 3.070312 0.125 2.253906 -0.160156 1.671875 -0.734375 C 1.097656 -1.316406 0.8125 -2.144531 0.8125 -3.21875 L 0.8125 -7.3125 L 2.5 -7.3125 L 2.5 -3.28125 C 2.5 -1.96875 3.039062 -1.3125 4.125 -1.3125 C 4.65625 -1.3125 5.0625 -1.46875 5.34375 -1.78125 C 5.625 -2.101562 5.765625 -2.601562 5.765625 -3.28125 L 5.765625 -7.3125 L 7.4375 -7.3125 L 7.4375 -3.21875 C 7.4375 -2.144531 7.144531 -1.316406 6.5625 -0.734375 C 5.976562 -0.160156 5.164062 0.125 4.125 0.125 Z M 4.125 0.125 "/></g></g></g><g fill="#000000" fill-opacity="1"><g transform="translate(197.132533, 196.205217)"><g><path d="M 3.265625 0.125 C 2.691406 0.125 2.132812 0.046875 1.59375 -0.109375 C 1.050781 -0.265625 0.617188 -0.46875 0.296875 -0.71875 L 0.875 -2 C 1.1875 -1.769531 1.554688 -1.582031 1.984375 -1.4375 C 2.421875 -1.300781 2.851562 -1.234375 3.28125 -1.234375 C 3.757812 -1.234375 4.113281 -1.300781 4.34375 -1.4375 C 4.570312 -1.582031 4.6875 -1.773438 4.6875 -2.015625 C 4.6875 -2.191406 4.617188 -2.335938 4.484375 -2.453125 C 4.347656 -2.566406 4.171875 -2.65625 3.953125 -2.71875 C 3.742188 -2.789062 3.460938 -2.867188 3.109375 -2.953125 C 2.546875 -3.085938 2.085938 -3.21875 1.734375 -3.34375 C 1.378906 -3.476562 1.070312 -3.691406 0.8125 -3.984375 C 0.5625 -4.285156 0.4375 -4.675781 0.4375 -5.15625 C 0.4375 -5.582031 0.550781 -5.96875 0.78125 -6.3125 C 1.007812 -6.664062 1.351562 -6.941406 1.8125 -7.140625 C 2.28125 -7.335938 2.847656 -7.4375 3.515625 -7.4375 C 3.984375 -7.4375 4.441406 -7.378906 4.890625 -7.265625 C 5.335938 -7.160156 5.726562 -7.003906 6.0625 -6.796875 L 5.546875 -5.515625 C 4.867188 -5.890625 4.191406 -6.078125 3.515625 -6.078125 C 3.035156 -6.078125 2.679688 -6 2.453125 -5.84375 C 2.234375 -5.695312 2.125 -5.5 2.125 -5.25 C 2.125 -5 2.253906 -4.8125 2.515625 -4.6875 C 2.773438 -4.5625 3.171875 -4.441406 3.703125 -4.328125 C 4.265625 -4.191406 4.722656 -4.054688 5.078125 -3.921875 C 5.429688 -3.796875 5.734375 -3.585938 5.984375 -3.296875 C 6.242188 -3.015625 6.375 -2.628906 6.375 -2.140625 C 6.375 -1.722656 6.253906 -1.34375 6.015625 -1 C 5.785156 -0.65625 5.4375 -0.378906 4.96875 -0.171875 C 4.507812 0.0234375 3.941406 0.125 3.265625 0.125 Z M 3.265625 0.125 "/></g></g></g><g fill="#000000" fill-opacity="1"><g transform="translate(207.409138, 196.205217)"><g><path d="M 2.390625 -5.9375 L 0.046875 -5.9375 L 0.046875 -7.3125 L 6.421875 -7.3125 L 6.421875 -5.9375 L 4.078125 -5.9375 L 4.078125 0 L 2.390625 0 Z M 2.390625 -5.9375 "/></g></g></g><g fill="#000000" fill-opacity="1"><g transform="translate(217.476906, 196.205217)"><g><path d="M 5.53125 0 L 4.125 -2.03125 L 2.5625 -2.03125 L 2.5625 0 L 0.875 0 L 0.875 -7.3125 L 4.03125 -7.3125 C 4.675781 -7.3125 5.238281 -7.203125 5.71875 -6.984375 C 6.195312 -6.773438 6.566406 -6.472656 6.828125 -6.078125 C 7.085938 -5.679688 7.21875 -5.207031 7.21875 -4.65625 C 7.21875 -4.113281 7.082031 -3.644531 6.8125 -3.25 C 6.550781 -2.863281 6.179688 -2.566406 5.703125 -2.359375 L 7.34375 0 Z M 5.5 -4.65625 C 5.5 -5.070312 5.363281 -5.390625 5.09375 -5.609375 C 4.832031 -5.828125 4.445312 -5.9375 3.9375 -5.9375 L 2.5625 -5.9375 L 2.5625 -3.390625 L 3.9375 -3.390625 C 4.445312 -3.390625 4.832031 -3.5 5.09375 -3.71875 C 5.363281 -3.945312 5.5 -4.257812 5.5 -4.65625 Z M 5.5 -4.65625 "/></g></g></g><g fill="#000000" fill-opacity="1"><g transform="translate(228.76633, 196.205217)"><g><path d="M 5.6875 -1.5625 L 2.296875 -1.5625 L 1.640625 0 L -0.09375 0 L 3.171875 -7.3125 L 4.84375 -7.3125 L 8.109375 0 L 6.328125 0 Z M 5.15625 -2.859375 L 4 -5.65625 L 2.828125 -2.859375 Z M 5.15625 -2.859375 "/></g></g></g><g fill="#000000" fill-opacity="1"><g transform="translate(240.379439, 196.205217)"><g><path d="M 2.390625 -5.9375 L 0.046875 -5.9375 L 0.046875 -7.3125 L 6.421875 -7.3125 L 6.421875 -5.9375 L 4.078125 -5.9375 L 4.078125 0 L 2.390625 0 Z M 2.390625 -5.9375 "/></g></g></g><g fill="#000000" fill-opacity="1"><g transform="translate(250.447206, 196.205217)"><g><path d="M 6.53125 -1.359375 L 6.53125 0 L 0.875 0 L 0.875 -7.3125 L 6.390625 -7.3125 L 6.390625 -5.953125 L 2.546875 -5.953125 L 2.546875 -4.375 L 5.953125 -4.375 L 5.953125 -3.046875 L 2.546875 -3.046875 L 2.546875 -1.359375 Z M 6.53125 -1.359375 "/></g></g></g><g fill="#000000" fill-opacity="1"><g transform="translate(261.068375, 196.205217)"><g><path d="M 0.875 -7.3125 L 4.1875 -7.3125 C 4.988281 -7.3125 5.691406 -7.160156 6.296875 -6.859375 C 6.910156 -6.554688 7.382812 -6.128906 7.71875 -5.578125 C 8.0625 -5.023438 8.234375 -4.382812 8.234375 -3.65625 C 8.234375 -2.925781 8.0625 -2.285156 7.71875 -1.734375 C 7.382812 -1.179688 6.910156 -0.753906 6.296875 -0.453125 C 5.691406 -0.148438 4.988281 0 4.1875 0 L 0.875 0 Z M 4.109375 -1.390625 C 4.835938 -1.390625 5.421875 -1.59375 5.859375 -2 C 6.296875 -2.40625 6.515625 -2.957031 6.515625 -3.65625 C 6.515625 -4.351562 6.296875 -4.90625 5.859375 -5.3125 C 5.421875 -5.71875 4.835938 -5.921875 4.109375 -5.921875 L 2.5625 -5.921875 L 2.5625 -1.390625 Z M 4.109375 -1.390625 "/></g></g></g></svg>